<svg width="122" height="121" viewBox="0 0 122 121" fill="none" xmlns="http://www.w3.org/2000/svg">
<rect width="122" height="121" fill="#E5E5E5"/>
<path d="M61 105.875C86.0599 105.875 106.375 85.5599 106.375 60.5C106.375 35.4401 86.0599 15.125 61 15.125C35.9401 15.125 15.625 35.4401 15.625 60.5C15.625 85.5599 35.9401 105.875 61 105.875Z" fill="#A90140"/>
<path d="M30.4475 69.8019L22.885 72.1274C24.7866 78.3858 28.1967 84.0813 32.8153 88.7131C37.4339 93.3449 43.1196 96.7711 49.3727 98.6906L51.6981 91.1281C46.6716 89.6024 42.1006 86.8566 38.3928 83.1355C34.6849 79.4145 31.9554 74.8338 30.4475 69.8019Z" fill="#B95F81"/>
<path d="M89.227 32.273C84.6066 27.6254 78.9018 24.2012 72.6274 22.3094L70.3019 29.8719C75.3284 31.3976 79.8994 34.1434 83.6072 37.8645C87.3151 41.5855 90.0446 46.1662 91.5525 51.1981L99.115 48.8727C97.2449 42.6058 93.8472 36.9017 89.227 32.273Z" fill="#B95F81"/>
<path d="M41.4509 66.4555L36.5542 67.9491C37.7726 71.9658 39.9629 75.62 42.9309 78.588C45.8989 81.556 49.5531 83.7463 53.5698 84.9647L55.0634 80.068C51.851 79.1014 48.9281 77.3539 46.556 74.9818C44.1839 72.6097 42.4364 69.6868 41.4698 66.4744L41.4509 66.4555Z" fill="#B95F81"/>
<path d="M79.0744 42.4256C76.1082 39.4633 72.4594 37.2753 68.4491 36.0542L66.9555 40.9509C70.1679 41.9175 73.0908 43.665 75.4629 46.0371C77.835 48.4092 79.5825 51.3321 80.5491 54.5445L85.4458 53.0509C84.2247 49.0406 82.0367 45.3918 79.0744 42.4256Z" fill="#B95F81"/>
<path d="M61 76.6648C69.9276 76.6648 77.1648 69.4276 77.1648 60.5C77.1648 51.5724 69.9276 44.3352 61 44.3352C52.0724 44.3352 44.8352 51.5724 44.8352 60.5C44.8352 69.4276 52.0724 76.6648 61 76.6648Z" fill="#B95F81"/>
<path d="M61 76.6648C69.9276 76.6648 77.1648 69.4276 77.1648 60.5C77.1648 51.5724 69.9276 44.3352 61 44.3352C52.0724 44.3352 44.8352 51.5724 44.8352 60.5C44.8352 69.4276 52.0724 76.6648 61 76.6648Z" fill="#DCDFE2"/>
<path d="M61 66.5689C64.3518 66.5689 67.0689 63.8518 67.0689 60.5C67.0689 57.1482 64.3518 54.4311 61 54.4311C57.6482 54.4311 54.9311 57.1482 54.9311 60.5C54.9311 63.8518 57.6482 66.5689 61 66.5689Z" fill="white"/>
</svg>
