<svg width="20" height="20" viewBox="0 0 20 20" fill="none" xmlns="http://www.w3.org/2000/svg">
<path d="M10 11.6667C9.30556 11.6667 8.71528 11.4236 8.22917 10.9375C7.74306 10.4514 7.5 9.86111 7.5 9.16667V4.16667C7.5 3.47222 7.74306 2.88194 8.22917 2.39583C8.71528 1.90972 9.30556 1.66667 10 1.66667C10.6944 1.66667 11.2847 1.90972 11.7708 2.39583C12.2569 2.88194 12.5 3.47222 12.5 4.16667V9.16667C12.5 9.86111 12.2569 10.4514 11.7708 10.9375C11.2847 11.4236 10.6944 11.6667 10 11.6667ZM9.16667 17.5V14.9375C7.72222 14.7431 6.52778 14.0972 5.58333 13C4.63889 11.9028 4.16667 10.625 4.16667 9.16667H5.83333C5.83333 10.3194 6.23958 11.3021 7.05208 12.1146C7.86458 12.9271 8.84722 13.3333 10 13.3333C11.1528 13.3333 12.1354 12.9271 12.9479 12.1146C13.7604 11.3021 14.1667 10.3194 14.1667 9.16667H15.8333C15.8333 10.625 15.3611 11.9028 14.4167 13C13.4722 14.0972 12.2778 14.7431 10.8333 14.9375V17.5H9.16667Z" fill="white"/>
</svg>
