<svg width="35" height="35" viewBox="0 0 35 35" fill="none" xmlns="http://www.w3.org/2000/svg">
<path d="M18.9711 30.8984H9.06719C8.92215 30.8984 8.78305 30.8408 8.68049 30.7383C8.57793 30.6357 8.52031 30.4966 8.52031 30.3516C8.52031 30.2065 8.57793 30.0674 8.68049 29.9649C8.78305 29.8623 8.92215 29.8047 9.06719 29.8047H18.9711C19.1161 29.8047 19.2552 29.8623 19.3578 29.9649C19.4604 30.0674 19.518 30.2065 19.518 30.3516C19.518 30.4966 19.4604 30.6357 19.3578 30.7383C19.2552 30.8408 19.1161 30.8984 18.9711 30.8984Z" fill="#CCBE27"/>
<path d="M8.88125 30.9477C8.73621 30.9477 8.59711 30.89 8.49455 30.7875C8.39199 30.6849 8.33437 30.5458 8.33437 30.4008C8.75 18.9219 14.2187 11.7687 15.9031 9.84375C18.5937 6.78125 24.9047 2.94219 29.1758 1.78828C29.3139 1.75611 29.4591 1.77883 29.5807 1.85165C29.7024 1.92448 29.791 2.04171 29.8279 2.17862C29.8648 2.31553 29.8471 2.46142 29.7785 2.58551C29.7098 2.7096 29.5957 2.80219 29.4602 2.84375C25.3586 3.9375 19.2937 7.63437 16.7289 10.5711C15.0883 12.4195 9.80547 19.3211 9.42266 30.4227C9.41705 30.5629 9.35771 30.6957 9.25692 30.7934C9.15614 30.8911 9.02163 30.9464 8.88125 30.9477Z" fill="#CCBE27"/>
<path d="M15.925 6.87422C15.8042 6.87384 15.6869 6.83346 15.5914 6.75937C15.4771 6.67073 15.4025 6.54039 15.384 6.39689C15.3656 6.2534 15.4048 6.10843 15.493 5.99375C17.2977 3.64219 21.1695 1.00078 29.3672 1.77187C29.5122 1.78565 29.6459 1.85649 29.7387 1.96879C29.8315 2.08109 29.8759 2.22566 29.8621 2.3707C29.8483 2.51574 29.7775 2.64937 29.6652 2.74219C29.5529 2.835 29.4083 2.8794 29.2633 2.86562C21.5688 2.14375 17.9977 4.50625 16.3625 6.69375C16.3077 6.75468 16.24 6.80252 16.1643 6.83376C16.0886 6.865 16.0068 6.87882 15.925 6.87422ZM8.09922 22.2031C8.01105 22.203 7.92423 22.1815 7.84614 22.1406C7.76806 22.0996 7.70104 22.0404 7.65078 21.968C5.18438 18.4461 6.24531 15.9523 7.26797 13.5187L7.33359 13.3656C7.36814 13.2839 7.42204 13.2119 7.49064 13.1557C7.55923 13.0995 7.64047 13.0608 7.72734 13.043C7.81476 13.0247 7.90532 13.0281 7.99112 13.0529C8.07692 13.0776 8.15534 13.1231 8.21953 13.1852L9.41719 14.3555C9.84375 12.343 10.9375 7.88594 12.7914 5.92266C12.8817 5.82753 13.0032 5.76801 13.1337 5.75496C13.2642 5.74191 13.395 5.77619 13.5023 5.85156C13.7703 6.0375 15.143 7.03281 15.3016 8.03906C15.3123 8.11016 15.309 8.18268 15.2917 8.25249C15.2745 8.3223 15.2437 8.38803 15.201 8.44592C15.1583 8.50381 15.1047 8.55273 15.0431 8.5899C14.9816 8.62706 14.9133 8.65173 14.8422 8.6625C14.7711 8.67327 14.6986 8.66994 14.6288 8.65268C14.5589 8.63542 14.4932 8.60459 14.4353 8.56193C14.3774 8.51927 14.3285 8.46563 14.2914 8.40407C14.2542 8.3425 14.2295 8.27422 14.2188 8.20312C14.0091 7.73509 13.6788 7.33119 13.2617 7.03281C11.3203 9.58125 10.3086 15.4656 10.2977 15.5312C10.2808 15.6292 10.2376 15.7208 10.1726 15.796C10.1076 15.8712 10.0233 15.9273 9.92885 15.9583C9.83436 15.9892 9.73324 15.9938 9.63634 15.9716C9.53944 15.9493 9.45044 15.9011 9.37891 15.832L8.02266 14.5141C7.12578 16.7016 6.58984 18.5445 8.53672 21.3227C8.57868 21.3814 8.60859 21.4479 8.62471 21.5183C8.64083 21.5887 8.64285 21.6616 8.63065 21.7328C8.61844 21.804 8.59226 21.8721 8.55361 21.9331C8.51497 21.9941 8.46461 22.0468 8.40547 22.0883C8.31749 22.1569 8.21063 22.197 8.09922 22.2031Z" fill="#CCBE27"/>
<path d="M19.0969 18.4844H19.0203L16.2859 18.1016C16.1719 18.0848 16.066 18.0324 15.9835 17.9518C15.901 17.8713 15.8461 17.7668 15.8266 17.6531C15.8075 17.5397 15.8248 17.4231 15.8758 17.32C15.9269 17.2169 16.0092 17.1325 16.1109 17.0789C16.1383 17.0789 18.7141 15.7117 19.9391 13.8414C20.6609 12.7477 21.2406 11.7797 21.6125 11.1398H20.0703C19.951 11.1386 19.8353 11.0984 19.7409 11.0253C19.6466 10.9522 19.5788 10.8502 19.5478 10.735C19.5168 10.6197 19.5244 10.4975 19.5693 10.3869C19.6143 10.2764 19.6942 10.1836 19.7969 10.1227C21.1959 9.36815 22.536 8.50893 23.8055 7.55234C23.9097 7.3939 24.0046 7.22956 24.0898 7.06016C25.1003 5.08256 26.5637 3.37174 28.3609 2.06719C28.4779 1.98303 28.6234 1.94847 28.7658 1.97099C28.9081 1.99352 29.0358 2.07133 29.1211 2.1875C29.1628 2.24661 29.1923 2.3134 29.208 2.38401C29.2237 2.45462 29.2253 2.52765 29.2126 2.59885C29.1998 2.67006 29.1731 2.73804 29.134 2.79885C29.0948 2.85966 29.044 2.9121 28.9844 2.95313C27.3204 4.15938 25.9686 5.74556 25.0414 7.57969C24.9341 7.79478 24.8136 8.00299 24.6805 8.20313C23.8813 8.90829 23.0064 9.52271 22.0719 10.0352H22.575C22.6699 10.0352 22.7632 10.0599 22.8456 10.1069C22.9281 10.1539 22.9969 10.2215 23.0453 10.3031C23.0933 10.3863 23.1186 10.4806 23.1186 10.5766C23.1186 10.6726 23.0933 10.7669 23.0453 10.85C23.0125 10.9156 22.1867 12.425 20.8578 14.4375C20.0708 15.5389 19.0861 16.4846 17.9539 17.2266L19.157 17.3961C19.3021 17.4062 19.4371 17.4736 19.5325 17.5833C19.6279 17.6931 19.6758 17.8362 19.6656 17.9813C19.6555 18.1263 19.5881 18.2614 19.4784 18.3567C19.3686 18.4521 19.2255 18.5 19.0805 18.4898L19.0969 18.4844ZM12.0313 24.0023C11.2724 23.9941 10.5154 23.9264 9.76719 23.8C9.69537 23.7889 9.62645 23.7637 9.56436 23.7259C9.50227 23.6882 9.44823 23.6385 9.40532 23.5799C9.36241 23.5212 9.33147 23.4547 9.31427 23.3841C9.29707 23.3135 9.29395 23.2402 9.30508 23.1684C9.31621 23.0965 9.34138 23.0276 9.37915 22.9655C9.41691 22.9034 9.46654 22.8494 9.52519 22.8065C9.58385 22.7636 9.65038 22.7326 9.72099 22.7154C9.7916 22.6982 9.8649 22.6951 9.93672 22.7063C12.6711 23.1383 14.6945 22.9578 16.8219 20.7648C17.1187 20.4622 17.3998 20.1446 17.6641 19.8133C17.7543 19.7006 17.8854 19.6282 18.0288 19.6118C18.1723 19.5954 18.3164 19.6364 18.4297 19.7258C18.4867 19.7701 18.5343 19.8253 18.5699 19.8882C18.6054 19.951 18.6282 20.0203 18.6368 20.092C18.6455 20.1636 18.6398 20.2363 18.6202 20.3058C18.6006 20.3753 18.5675 20.4403 18.5227 20.4969C18.2602 20.825 17.9758 21.1695 17.6094 21.525C16.9155 22.3185 16.057 22.9513 15.0936 23.3791C14.1303 23.807 13.0852 24.0197 12.0313 24.0023ZM26.9008 30.8984H21.5906C21.4456 30.8984 21.3065 30.8408 21.2039 30.7383C21.1014 30.6357 21.0438 30.4966 21.0438 30.3516C21.0438 30.2065 21.1014 30.0674 21.2039 29.9649C21.3065 29.8623 21.4456 29.8047 21.5906 29.8047H26.9008C27.0458 29.8047 27.1849 29.8623 27.2875 29.9649C27.39 30.0674 27.4477 30.2065 27.4477 30.3516C27.4477 30.4966 27.39 30.6357 27.2875 30.7383C27.1849 30.8408 27.0458 30.8984 26.9008 30.8984ZM22.6789 33.3594H5.68203C5.53699 33.3594 5.39789 33.3018 5.29533 33.1992C5.19277 33.0966 5.13516 32.9575 5.13516 32.8125C5.13516 32.6675 5.19277 32.5284 5.29533 32.4258C5.39789 32.3232 5.53699 32.2656 5.68203 32.2656H22.6789C22.8239 32.2656 22.963 32.3232 23.0656 32.4258C23.1682 32.5284 23.2258 32.6675 23.2258 32.8125C23.2258 32.9575 23.1682 33.0966 23.0656 33.1992C22.963 33.3018 22.8239 33.3594 22.6789 33.3594Z" fill="#CCBE27"/>
</svg>
